# xmcd CD database file generated by MAGIX-FreeDB-MP3_Maker_16 v2.0beta1
# 
# Track frame offsets:
#      150
#      16935
#      42788
#      59154
#      81289
#      99856
#      125603
#      153935
#      175189
#      200127
#      229358
#      248493
#      270286
#      286775
# 
# Disc length: 4067 seconds
# 
# Revision: 7 
# Processed by: cddbd v1.5.2PL0 Copyright (c) Steve Scherf et al.
# Submitted via: MAGIX-FreeDB-MP3_Maker_16 v2.0beta1
# 
DISCID=b60fe10e
DTITLE=Barry White - Most Famous Hits - The Album - Disc 2
DYEAR=2014
DGENRE=Pop
TTITLE0=Barry White - Relax To The Max
TTITLE1=Barry White - Don`t Forget... Remember
TTITLE2=Barry White - Life
TTITLE3=Barry White - Love Makin' Musik
TTITLE4=Barry White - Hung Up In Your Love
TTITLE5=Barry White - America
TTITLE6=Barry White - My Laboratory (Is Ready For You)
TTITLE7=Barry White - Antigua Blue
TTITLE8=Barry White - Never, Never Say Goodbye
TTITLE9=Barry White - Take A Good Look
TTITLE10=Barry White - You Make My Life Easy Livin
TTITLE11=Barry White - The Better Love Is
TTITLE12=Barry White - You
TTITLE13=Barry White - Gotta Be Where You Are
EXTD=
EXTT0=
EXTT1=
EXTT2=
EXTT3=
EXTT4=
EXTT5=
EXTT6=
EXTT7=
EXTT8=
EXTT9=
EXTT10=
EXTT11=
EXTT12=
EXTT13=
PLAYORDER=
